<?xml version="1.0" encoding="UTF-8"?>
<svg xmlns="http://www.w3.org/2000/svg" xmlns:xlink="http://www.w3.org/1999/xlink" width="14px" height="13px" viewBox="0 0 14 13" version="1.1">
<g id="surface1">
<path style=" stroke:none;fill-rule:nonzero;fill:rgb(100%,100%,100%);fill-opacity:1;" d="M 5.832031 5.429688 C 4.375 5.429688 3.113281 4.265625 3.113281 2.804688 C 3.113281 1.347656 4.375 0.179688 5.832031 0.179688 C 7.292969 0.179688 8.554688 1.347656 8.554688 2.804688 C 8.554688 4.265625 7.292969 5.429688 5.832031 5.429688 Z M 6.804688 6.015625 C 8.84375 6.015625 10.5 7.667969 10.5 9.609375 L 10.5 12.429688 C 10.5 12.625 10.40625 12.722656 10.207031 12.722656 L 1.457031 12.722656 C 1.261719 12.722656 1.167969 12.625 1.167969 12.429688 L 1.167969 9.707031 C 1.070312 7.667969 2.71875 6.015625 4.863281 6.015625 Z M 6.804688 6.015625 "/>
<path style=" stroke:none;fill-rule:nonzero;fill:rgb(100%,100%,100%);fill-opacity:1;" d="M 12.410156 0.832031 L 12.410156 3.363281 L 14.945312 3.363281 L 14.945312 4.144531 L 12.410156 4.144531 L 12.410156 6.675781 L 11.644531 6.675781 L 11.644531 4.144531 L 9.109375 4.144531 L 9.109375 3.363281 L 11.644531 3.363281 L 11.644531 0.832031 Z M 12.410156 0.832031 "/>
</g>
</svg>
