<?xml version="1.0" encoding="utf-8"?>
<svg width="12px" height="13px" viewBox="0 -3.944 23.548 26.111" version="1.1" xmlns="http://www.w3.org/2000/svg" xmlns:bx="https://boxy-svg.com">
  <title>icon-person-filled</title>
  <desc>Created with Sketch.</desc>
  <defs>
    <path d="M9.00009221,7.47547475 C6.89210041,7.47547475 5.17509221,5.799658 5.17509221,3.73323733 C5.17509221,1.67671677 6.89210041,0 9.00009221,0 C11.1071619,0 12.8250922,1.67671677 12.8250922,3.73323733 C12.8250922,5.799658 11.1071619,7.47547475 9.00009221,7.47547475 Z M10.4532787,8.36180362 C13.3792008,8.36180362 15.75,10.6856269 15.75,13.5404554 L15.75,17.5571956 C15.75,17.8055981 15.5498975,18 15.2953893,18 L2.70368852,18 C2.45010246,18 2.25,17.8055981 2.25,17.5571956 L2.25,13.5404554 C2.25,10.6856269 4.62079918,8.36180362 7.54672131,8.36180362 L10.4532787,8.36180362 Z" id="path-1"/>
  </defs>
  <g id="Header-with-MP-info" stroke="none" stroke-width="1" fill="none" fill-rule="evenodd" style="" transform="matrix(1.256983, 0, 0, 1.223912, -0.022126, -3.994799)">
    <g id="Icons/3.0-24/Filled/Traveler" transform="translate(-2.000000, 0.000000)">
      <path d="M 9.262 8.854 C 7.017 8.854 5.19 6.869 5.19 4.421 C 5.19 1.986 7.017 0 9.262 0 C 11.507 0 13.335 1.986 13.335 4.421 C 13.335 6.869 11.507 8.854 9.262 8.854 Z M 10.81 9.902 C 13.926 9.902 16.45 12.655 16.45 16.036 L 16.45 20.793 C 16.45 21.088 16.237 21.317 15.967 21.317 L 2.559 21.317 C 2.287 21.317 2.075 21.088 2.075 20.793 L 2.075 16.036 C 2.075 12.655 4.601 9.902 7.715 9.902 L 10.81 9.902 Z" id="Mask" fill="#FFFFFF" fill-rule="nonzero" style=""/>
    </g>
  </g>
  <path d="M 17.474 -2.026 H 20.236 V 2.312 H 23.459 V 6.03 H 20.236 V 10.368 H 17.474 V 6.03 H 14.251 V 2.312 H 17.474 Z" style="fill: rgb(255, 255, 255);" bx:shape="cross 14.251 -2.026 9.208 12.394 3.718 2.762 0.5 1@37dbabb1"/>
</svg>